<svg width="64" height="16" viewBox="0 0 64 16" fill="none" xmlns="http://www.w3.org/2000/svg">
<path fill-rule="evenodd" clip-rule="evenodd" d="M1.7468 12.1728C2.91122 13.7371 4.38771 14.7392 6.17627 15.179C7.96483 14.7392 9.44132 13.7371 10.6057 12.1728C11.7703 10.6084 12.3525 8.87126 12.3525 6.96139V2.29499L6.17627 0L0 2.29499V6.96139C0 8.87126 0.582267 10.6084 1.7468 12.1728ZM5.79026 7.55745V11.5128L2.98291 9.90173C2.7964 9.7924 2.64847 9.64447 2.53914 9.45796C2.4298 9.27145 2.37514 9.06885 2.37514 8.85018V5.61835L5.79026 7.55745ZM9.36939 9.90173L6.56204 11.5128V7.5478L9.97716 5.59906V8.85018C9.97716 9.06885 9.9225 9.27145 9.81316 9.45796C9.70382 9.64447 9.5559 9.7924 9.36939 9.90173ZM9.53339 4.96234L8.24066 5.70518L4.88342 3.77573L5.56837 3.38019C5.75489 3.27086 5.95748 3.21619 6.17615 3.21619C6.39482 3.21619 6.59741 3.27086 6.78393 3.38019L9.53339 4.96234ZM7.44959 6.1586L6.1665 6.89179L2.79961 4.97199L4.10199 4.2195L7.44959 6.1586Z" fill="#1D4ED8"/>
<path d="M16.0165 8.83337V3.23337H17.9925C18.3765 3.23337 18.7152 3.31071 19.0085 3.46537C19.3019 3.62004 19.5312 3.83604 19.6965 4.11337C19.8619 4.38537 19.9445 4.70271 19.9445 5.06537C19.9445 5.41737 19.8672 5.73204 19.7125 6.00937C19.5579 6.28671 19.3419 6.50537 19.0645 6.66537C18.7925 6.82004 18.4752 6.89737 18.1125 6.89737H16.9445V8.83337H16.0165ZM16.9445 6.04137H18.0965C18.3632 6.04137 18.5819 5.95071 18.7525 5.76937C18.9232 5.58804 19.0085 5.35337 19.0085 5.06537C19.0085 4.77204 18.9125 4.53471 18.7205 4.35337C18.5285 4.17204 18.2805 4.08137 17.9765 4.08137H16.9445V6.04137ZM22.9604 8.83337L22.9204 8.08137V6.77737C22.9204 6.50537 22.8911 6.27871 22.8324 6.09737C22.7791 5.91071 22.6884 5.76937 22.5604 5.67337C22.4377 5.57204 22.2724 5.52137 22.0644 5.52137C21.8724 5.52137 21.7044 5.56137 21.5604 5.64137C21.4164 5.72137 21.2937 5.84671 21.1924 6.01737L20.4084 5.72937C20.4937 5.55337 20.6057 5.39071 20.7444 5.24137C20.8884 5.08671 21.0671 4.96404 21.2804 4.87337C21.4991 4.78271 21.7604 4.73737 22.0644 4.73737C22.4537 4.73737 22.7791 4.81471 23.0404 4.96937C23.3017 5.11871 23.4937 5.33471 23.6164 5.61737C23.7444 5.90004 23.8084 6.24137 23.8084 6.64137L23.7844 8.83337H22.9604ZM21.8084 8.92937C21.3284 8.92937 20.9551 8.82271 20.6884 8.60937C20.4271 8.39604 20.2964 8.09471 20.2964 7.70537C20.2964 7.28937 20.4351 6.97204 20.7124 6.75337C20.9951 6.53471 21.3871 6.42537 21.8884 6.42537H22.9604V7.11337H22.1764C21.8191 7.11337 21.5684 7.16404 21.4244 7.26537C21.2804 7.36137 21.2084 7.50004 21.2084 7.68137C21.2084 7.83604 21.2697 7.95871 21.3924 8.04937C21.5204 8.13471 21.6964 8.17737 21.9204 8.17737C22.1231 8.17737 22.2991 8.13204 22.4484 8.04137C22.5977 7.95071 22.7124 7.83071 22.7924 7.68137C22.8777 7.53204 22.9204 7.36404 22.9204 7.17737H23.1844C23.1844 7.72137 23.0751 8.15071 22.8564 8.46537C22.6377 8.77471 22.2884 8.92937 21.8084 8.92937ZM26.5877 8.92937C26.1771 8.92937 25.8144 8.84137 25.4997 8.66537C25.1851 8.48404 24.9371 8.23604 24.7557 7.92137C24.5797 7.60671 24.4917 7.24404 24.4917 6.83337C24.4917 6.42271 24.5797 6.06004 24.7557 5.74537C24.9371 5.43071 25.1824 5.18537 25.4917 5.00937C25.8064 4.82804 26.1664 4.73737 26.5717 4.73737C26.9664 4.73737 27.3237 4.83337 27.6437 5.02537C27.9637 5.21204 28.2011 5.48137 28.3557 5.83337L27.5237 6.15337C27.4384 5.97737 27.3077 5.83604 27.1317 5.72937C26.9557 5.62271 26.7557 5.56937 26.5317 5.56937C26.3131 5.56937 26.1184 5.62537 25.9477 5.73737C25.7771 5.84404 25.6437 5.99337 25.5477 6.18537C25.4517 6.37204 25.4037 6.58804 25.4037 6.83337C25.4037 7.07871 25.4517 7.29737 25.5477 7.48937C25.6491 7.67604 25.7851 7.82537 25.9557 7.93737C26.1317 8.04404 26.3291 8.09737 26.5477 8.09737C26.7717 8.09737 26.9717 8.04137 27.1477 7.92937C27.3237 7.81204 27.4544 7.65471 27.5397 7.45737L28.3717 7.77737C28.2171 8.14004 27.9797 8.42271 27.6597 8.62537C27.3451 8.82804 26.9877 8.92937 26.5877 8.92937ZM29.9233 7.71337L29.3793 7.09737L31.4593 4.83337H32.5393L29.9233 7.71337ZM29.0673 8.83337V3.23337H29.9633V8.83337H29.0673ZM31.6113 8.83337L30.2033 6.76137L30.7873 6.13737L32.6753 8.83337H31.6113ZM35.4839 8.83337L35.4439 8.08137V6.77737C35.4439 6.50537 35.4145 6.27871 35.3559 6.09737C35.3025 5.91071 35.2119 5.76937 35.0839 5.67337C34.9612 5.57204 34.7959 5.52137 34.5879 5.52137C34.3959 5.52137 34.2279 5.56137 34.0839 5.64137C33.9399 5.72137 33.8172 5.84671 33.7159 6.01737L32.9319 5.72937C33.0172 5.55337 33.1292 5.39071 33.2679 5.24137C33.4119 5.08671 33.5905 4.96404 33.8039 4.87337C34.0225 4.78271 34.2839 4.73737 34.5879 4.73737C34.9772 4.73737 35.3025 4.81471 35.5639 4.96937C35.8252 5.11871 36.0172 5.33471 36.1399 5.61737C36.2679 5.90004 36.3319 6.24137 36.3319 6.64137L36.3079 8.83337H35.4839ZM34.3319 8.92937C33.8519 8.92937 33.4785 8.82271 33.2119 8.60937C32.9505 8.39604 32.8199 8.09471 32.8199 7.70537C32.8199 7.28937 32.9585 6.97204 33.2359 6.75337C33.5185 6.53471 33.9105 6.42537 34.4119 6.42537H35.4839V7.11337H34.6999C34.3425 7.11337 34.0919 7.16404 33.9479 7.26537C33.8039 7.36137 33.7319 7.50004 33.7319 7.68137C33.7319 7.83604 33.7932 7.95871 33.9159 8.04937C34.0439 8.13471 34.2199 8.17737 34.4439 8.17737C34.6465 8.17737 34.8225 8.13204 34.9719 8.04137C35.1212 7.95071 35.2359 7.83071 35.3159 7.68137C35.4012 7.53204 35.4439 7.36404 35.4439 7.17737H35.7079C35.7079 7.72137 35.5985 8.15071 35.3799 8.46537C35.1612 8.77471 34.8119 8.92937 34.3319 8.92937ZM38.9592 10.5374C38.6765 10.5374 38.4205 10.5134 38.1912 10.4654C37.9672 10.4174 37.7778 10.3614 37.6232 10.2974C37.4685 10.2334 37.3485 10.172 37.2632 10.1134L37.6072 9.39337C37.6818 9.43071 37.7805 9.47604 37.9032 9.52937C38.0312 9.58804 38.1805 9.63871 38.3512 9.68137C38.5218 9.72404 38.7138 9.74537 38.9272 9.74537C39.1565 9.74537 39.3618 9.69737 39.5432 9.60137C39.7245 9.51071 39.8658 9.36937 39.9672 9.17737C40.0685 8.98537 40.1192 8.74004 40.1192 8.44137V4.83337H41.0152V8.41737C41.0152 8.87071 40.9298 9.25471 40.7592 9.56937C40.5885 9.88937 40.3485 10.1294 40.0392 10.2894C39.7298 10.4547 39.3698 10.5374 38.9592 10.5374ZM38.8232 8.75337C38.4605 8.75337 38.1432 8.67071 37.8712 8.50537C37.6045 8.34004 37.3938 8.11071 37.2392 7.81737C37.0898 7.51871 37.0152 7.17471 37.0152 6.78537C37.0152 6.36937 37.0898 6.00937 37.2392 5.70537C37.3938 5.40137 37.6045 5.16404 37.8712 4.99337C38.1432 4.82271 38.4605 4.73737 38.8232 4.73737C39.1485 4.73737 39.4312 4.82271 39.6712 4.99337C39.9165 5.16404 40.1058 5.40404 40.2392 5.71337C40.3725 6.01737 40.4392 6.37737 40.4392 6.79337C40.4392 7.18804 40.3725 7.53204 40.2392 7.82537C40.1058 8.11871 39.9165 8.34804 39.6712 8.51337C39.4312 8.67337 39.1485 8.75337 38.8232 8.75337ZM39.0712 7.99337C39.2738 7.99337 39.4498 7.94004 39.5992 7.83337C39.7538 7.72671 39.8738 7.58271 39.9592 7.40137C40.0445 7.21471 40.0872 7.00137 40.0872 6.76137C40.0872 6.51604 40.0445 6.30271 39.9592 6.12137C39.8738 5.93471 39.7538 5.79071 39.5992 5.68937C39.4445 5.58271 39.2658 5.52937 39.0632 5.52937C38.8498 5.52937 38.6605 5.58271 38.4952 5.68937C38.3352 5.79071 38.2072 5.93471 38.1112 6.12137C38.0205 6.30271 37.9752 6.51604 37.9752 6.76137C37.9752 7.00137 38.0205 7.21471 38.1112 7.40137C38.2072 7.58271 38.3378 7.72671 38.5032 7.83337C38.6685 7.94004 38.8578 7.99337 39.0712 7.99337ZM43.7888 8.92937C43.3995 8.92937 43.0528 8.84137 42.7488 8.66537C42.4501 8.48404 42.2128 8.23604 42.0368 7.92137C41.8661 7.60671 41.7808 7.24404 41.7808 6.83337C41.7808 6.42271 41.8688 6.06004 42.0448 5.74537C42.2208 5.43071 42.4608 5.18537 42.7648 5.00937C43.0741 4.82804 43.4261 4.73737 43.8208 4.73737C44.1781 4.73737 44.5008 4.83071 44.7888 5.01737C45.0768 5.19871 45.3035 5.46271 45.4688 5.80937C45.6395 6.15604 45.7248 6.56937 45.7248 7.04937H42.5808L42.7008 6.93737C42.7008 7.18271 42.7541 7.39604 42.8608 7.57737C42.9675 7.75337 43.1088 7.88937 43.2848 7.98537C43.4608 8.08137 43.6555 8.12937 43.8688 8.12937C44.1141 8.12937 44.3168 8.07604 44.4768 7.96937C44.6368 7.85737 44.7621 7.71337 44.8528 7.53737L45.6448 7.87337C45.5328 8.08671 45.3888 8.27337 45.2128 8.43337C45.0421 8.59337 44.8368 8.71604 44.5968 8.80137C44.3621 8.88671 44.0928 8.92937 43.7888 8.92937ZM42.7568 6.47337L42.6288 6.36137H44.8848L44.7648 6.47337C44.7648 6.25471 44.7168 6.07604 44.6208 5.93737C44.5248 5.79337 44.4021 5.68671 44.2528 5.61737C44.1088 5.54271 43.9568 5.50537 43.7968 5.50537C43.6368 5.50537 43.4768 5.54271 43.3168 5.61737C43.1568 5.68671 43.0235 5.79337 42.9168 5.93737C42.8101 6.07604 42.7568 6.25471 42.7568 6.47337ZM48.419 8.92937C48.1257 8.92937 47.8564 8.89471 47.611 8.82537C47.371 8.75604 47.1577 8.66004 46.971 8.53737C46.7897 8.41471 46.6377 8.27871 46.515 8.12937C46.3977 7.97471 46.315 7.81471 46.267 7.64937L47.179 7.36937C47.2484 7.56671 47.3844 7.74004 47.587 7.88937C47.7897 8.03871 48.0404 8.11604 48.339 8.12137C48.6857 8.12137 48.9604 8.04937 49.163 7.90537C49.3657 7.76137 49.467 7.57204 49.467 7.33737C49.467 7.12404 49.3817 6.95071 49.211 6.81737C49.0404 6.67871 48.811 6.57204 48.523 6.49737L47.835 6.32137C47.5737 6.25204 47.3364 6.15071 47.123 6.01737C46.915 5.88404 46.7497 5.71604 46.627 5.51337C46.5097 5.31071 46.451 5.07071 46.451 4.79337C46.451 4.27071 46.6217 3.86537 46.963 3.57737C47.3044 3.28404 47.7924 3.13737 48.427 3.13737C48.7844 3.13737 49.0964 3.19337 49.363 3.30537C49.635 3.41204 49.859 3.56137 50.035 3.75337C50.211 3.94004 50.3417 4.15337 50.427 4.39337L49.531 4.68137C49.451 4.46804 49.3124 4.29204 49.115 4.15337C48.9177 4.01471 48.6724 3.94537 48.379 3.94537C48.075 3.94537 47.835 4.01737 47.659 4.16137C47.4884 4.30537 47.403 4.50537 47.403 4.76137C47.403 4.96937 47.4697 5.13204 47.603 5.24937C47.7417 5.36137 47.9284 5.44671 48.163 5.50537L48.851 5.67337C49.3524 5.79604 49.7417 6.00671 50.019 6.30537C50.2964 6.60404 50.435 6.93471 50.435 7.29737C50.435 7.61737 50.3577 7.90004 50.203 8.14537C50.0484 8.39071 49.819 8.58271 49.515 8.72137C49.2164 8.86004 48.851 8.92937 48.419 8.92937ZM53.7339 8.83337L53.6939 8.08137V6.77737C53.6939 6.50537 53.6645 6.27871 53.6059 6.09737C53.5525 5.91071 53.4619 5.76937 53.3339 5.67337C53.2112 5.57204 53.0459 5.52137 52.8379 5.52137C52.6459 5.52137 52.4779 5.56137 52.3339 5.64137C52.1899 5.72137 52.0672 5.84671 51.9659 6.01737L51.1819 5.72937C51.2672 5.55337 51.3792 5.39071 51.5179 5.24137C51.6619 5.08671 51.8405 4.96404 52.0539 4.87337C52.2725 4.78271 52.5339 4.73737 52.8379 4.73737C53.2272 4.73737 53.5525 4.81471 53.8139 4.96937C54.0752 5.11871 54.2672 5.33471 54.3899 5.61737C54.5179 5.90004 54.5819 6.24137 54.5819 6.64137L54.5579 8.83337H53.7339ZM52.5819 8.92937C52.1019 8.92937 51.7285 8.82271 51.4619 8.60937C51.2005 8.39604 51.0699 8.09471 51.0699 7.70537C51.0699 7.28937 51.2085 6.97204 51.4859 6.75337C51.7685 6.53471 52.1605 6.42537 52.6619 6.42537H53.7339V7.11337H52.9499C52.5925 7.11337 52.3419 7.16404 52.1979 7.26537C52.0539 7.36137 51.9819 7.50004 51.9819 7.68137C51.9819 7.83604 52.0432 7.95871 52.1659 8.04937C52.2939 8.13471 52.4699 8.17737 52.6939 8.17737C52.8965 8.17737 53.0725 8.13204 53.2219 8.04137C53.3712 7.95071 53.4859 7.83071 53.5659 7.68137C53.6512 7.53204 53.6939 7.36404 53.6939 7.17737H53.9579C53.9579 7.72137 53.8485 8.15071 53.6299 8.46537C53.4112 8.77471 53.0619 8.92937 52.5819 8.92937ZM55.8892 8.83337V4.40937C55.8892 3.98804 55.9932 3.66537 56.2012 3.44137C56.4145 3.21204 56.7345 3.09737 57.1612 3.09737C57.2998 3.09737 57.4465 3.12137 57.6012 3.16937C57.7612 3.21204 57.9132 3.27071 58.0572 3.34537L57.7292 4.00937C57.6278 3.96137 57.5372 3.92671 57.4572 3.90537C57.3825 3.88404 57.3158 3.87337 57.2572 3.87337C57.0972 3.87337 56.9772 3.92671 56.8972 4.03337C56.8225 4.13471 56.7852 4.30271 56.7852 4.53737V8.83337H55.8892ZM55.2012 5.56937V4.83337H57.8332V5.56937H55.2012ZM60.2732 8.92937C59.8838 8.92937 59.5372 8.84137 59.2332 8.66537C58.9345 8.48404 58.6972 8.23604 58.5212 7.92137C58.3505 7.60671 58.2652 7.24404 58.2652 6.83337C58.2652 6.42271 58.3532 6.06004 58.5292 5.74537C58.7052 5.43071 58.9452 5.18537 59.2492 5.00937C59.5585 4.82804 59.9105 4.73737 60.3052 4.73737C60.6625 4.73737 60.9852 4.83071 61.2732 5.01737C61.5612 5.19871 61.7878 5.46271 61.9532 5.80937C62.1238 6.15604 62.2092 6.56937 62.2092 7.04937H59.0652L59.1852 6.93737C59.1852 7.18271 59.2385 7.39604 59.3452 7.57737C59.4518 7.75337 59.5932 7.88937 59.7692 7.98537C59.9452 8.08137 60.1398 8.12937 60.3532 8.12937C60.5985 8.12937 60.8012 8.07604 60.9612 7.96937C61.1212 7.85737 61.2465 7.71337 61.3372 7.53737L62.1292 7.87337C62.0172 8.08671 61.8732 8.27337 61.6972 8.43337C61.5265 8.59337 61.3212 8.71604 61.0812 8.80137C60.8465 8.88671 60.5772 8.92937 60.2732 8.92937ZM59.2412 6.47337L59.1132 6.36137H61.3692L61.2492 6.47337C61.2492 6.25471 61.2012 6.07604 61.1052 5.93737C61.0092 5.79337 60.8865 5.68671 60.7372 5.61737C60.5932 5.54271 60.4412 5.50537 60.2812 5.50537C60.1212 5.50537 59.9612 5.54271 59.8012 5.61737C59.6412 5.68671 59.5078 5.79337 59.4012 5.93737C59.2945 6.07604 59.2412 6.25471 59.2412 6.47337Z" fill="#1E1E1E"/>
<path d="M17.0248 13.3456L17.8678 11.2456H18.1828L17.3218 13.3456H17.0248ZM16.9948 13.3456L16.1338 11.2456H16.4488L17.2888 13.3456H16.9948ZM19.2092 13.3456L19.1972 13.0846V12.5626C19.1972 12.4526 19.1842 12.3606 19.1582 12.2866C19.1342 12.2126 19.0962 12.1566 19.0442 12.1186C18.9942 12.0806 18.9272 12.0616 18.8432 12.0616C18.7652 12.0616 18.6972 12.0776 18.6392 12.1096C18.5832 12.1416 18.5362 12.1916 18.4982 12.2596L18.2462 12.1636C18.2822 12.0956 18.3272 12.0356 18.3812 11.9836C18.4352 11.9296 18.5002 11.8876 18.5762 11.8576C18.6522 11.8256 18.7412 11.8096 18.8432 11.8096C18.9852 11.8096 19.1032 11.8376 19.1972 11.8936C19.2912 11.9496 19.3612 12.0306 19.4072 12.1366C19.4552 12.2426 19.4782 12.3736 19.4762 12.5296L19.4732 13.3456H19.2092ZM18.7682 13.3816C18.5902 13.3816 18.4512 13.3416 18.3512 13.2616C18.2532 13.1796 18.2042 13.0666 18.2042 12.9226C18.2042 12.7686 18.2552 12.6516 18.3572 12.5716C18.4612 12.4896 18.6052 12.4486 18.7892 12.4486H19.2062V12.6736H18.8672C18.7292 12.6736 18.6322 12.6956 18.5762 12.7396C18.5202 12.7816 18.4922 12.8406 18.4922 12.9166C18.4922 12.9866 18.5182 13.0416 18.5702 13.0816C18.6242 13.1196 18.6982 13.1386 18.7922 13.1386C18.8742 13.1386 18.9452 13.1216 19.0052 13.0876C19.0652 13.0516 19.1122 13.0016 19.1462 12.9376C19.1802 12.8736 19.1972 12.8006 19.1972 12.7186H19.2962C19.2962 12.9226 19.2522 13.0846 19.1642 13.2046C19.0782 13.3226 18.9462 13.3816 18.7682 13.3816ZM20.3721 13.3816C20.2661 13.3816 20.1711 13.3656 20.0871 13.3336C20.0051 13.3016 19.9351 13.2586 19.8771 13.2046C19.8211 13.1506 19.7791 13.0896 19.7511 13.0216L19.9971 12.9136C20.0291 12.9756 20.0771 13.0266 20.1411 13.0666C20.2051 13.1066 20.2761 13.1266 20.3541 13.1266C20.4401 13.1266 20.5111 13.1106 20.5671 13.0786C20.6231 13.0466 20.6511 13.0016 20.6511 12.9436C20.6511 12.8876 20.6301 12.8436 20.5881 12.8116C20.5461 12.7796 20.4851 12.7536 20.4051 12.7336L20.2641 12.6976C20.1241 12.6596 20.0151 12.6026 19.9371 12.5266C19.8611 12.4506 19.8231 12.3646 19.8231 12.2686C19.8231 12.1226 19.8701 12.0096 19.9641 11.9296C20.0581 11.8496 20.1971 11.8096 20.3811 11.8096C20.4711 11.8096 20.5531 11.8226 20.6271 11.8486C20.7031 11.8746 20.7671 11.9116 20.8191 11.9596C20.8731 12.0076 20.9111 12.0646 20.9331 12.1306L20.6931 12.2386C20.6691 12.1786 20.6281 12.1346 20.5701 12.1066C20.5121 12.0766 20.4441 12.0616 20.3661 12.0616C20.2861 12.0616 20.2231 12.0796 20.1771 12.1156C20.1311 12.1496 20.1081 12.1976 20.1081 12.2596C20.1081 12.2936 20.1271 12.3266 20.1651 12.3586C20.2051 12.3886 20.2631 12.4136 20.3391 12.4336L20.5011 12.4726C20.5991 12.4966 20.6801 12.5336 20.7441 12.5836C20.8081 12.6316 20.8561 12.6866 20.8881 12.7486C20.9201 12.8086 20.9361 12.8716 20.9361 12.9376C20.9361 13.0276 20.9111 13.1066 20.8611 13.1746C20.8131 13.2406 20.7461 13.2916 20.6601 13.3276C20.5761 13.3636 20.4801 13.3816 20.3721 13.3816ZM20.2311 11.6416V11.6356L20.6091 11.2456H20.9061L20.5401 11.6416H20.2311ZM20.2101 11.6416L19.8441 11.2456H20.1411L20.5191 11.6356V11.6416H20.2101ZM21.9161 13.3816C21.7701 13.3816 21.6411 13.3486 21.5291 13.2826C21.4171 13.2146 21.3291 13.1216 21.2651 13.0036C21.2011 12.8856 21.1691 12.7496 21.1691 12.5956C21.1691 12.4416 21.2011 12.3056 21.2651 12.1876C21.3291 12.0696 21.4171 11.9776 21.5291 11.9116C21.6431 11.8436 21.7731 11.8096 21.9191 11.8096C22.0571 11.8096 22.1781 11.8446 22.2821 11.9146C22.3861 11.9826 22.4671 12.0806 22.5251 12.2086C22.5851 12.3346 22.6151 12.4836 22.6151 12.6556H21.4031L21.4571 12.6106C21.4571 12.7166 21.4781 12.8086 21.5201 12.8866C21.5621 12.9646 21.6191 13.0246 21.6911 13.0666C21.7631 13.1066 21.8451 13.1266 21.9371 13.1266C22.0371 13.1266 22.1201 13.1036 22.1861 13.0576C22.2541 13.0096 22.3071 12.9496 22.3451 12.8776L22.5911 12.9916C22.5511 13.0696 22.4991 13.1386 22.4351 13.1986C22.3711 13.2566 22.2951 13.3016 22.2071 13.3336C22.1211 13.3656 22.0241 13.3816 21.9161 13.3816ZM21.4751 12.4756L21.4181 12.4306H22.3661L22.3121 12.4756C22.3121 12.3876 22.2941 12.3126 22.2581 12.2506C22.2221 12.1866 22.1741 12.1386 22.1141 12.1066C22.0541 12.0726 21.9871 12.0556 21.9131 12.0556C21.8411 12.0556 21.7711 12.0726 21.7031 12.1066C21.6371 12.1386 21.5821 12.1856 21.5381 12.2476C21.4961 12.3096 21.4751 12.3856 21.4751 12.4756ZM24.307 13.3816C24.157 13.3816 24.025 13.3486 23.911 13.2826C23.797 13.2146 23.707 13.1216 23.641 13.0036C23.577 12.8856 23.545 12.7496 23.545 12.5956C23.545 12.4416 23.577 12.3056 23.641 12.1876C23.705 12.0696 23.794 11.9776 23.908 11.9116C24.022 11.8436 24.153 11.8096 24.301 11.8096C24.449 11.8096 24.58 11.8436 24.694 11.9116C24.808 11.9776 24.897 12.0696 24.961 12.1876C25.025 12.3056 25.057 12.4416 25.057 12.5956C25.057 12.7496 25.025 12.8856 24.961 13.0036C24.897 13.1216 24.808 13.2146 24.694 13.2826C24.582 13.3486 24.453 13.3816 24.307 13.3816ZM24.307 13.1206C24.397 13.1206 24.477 13.0986 24.547 13.0546C24.617 13.0086 24.671 12.9466 24.709 12.8686C24.749 12.7906 24.769 12.6996 24.769 12.5956C24.769 12.4916 24.749 12.4006 24.709 12.3226C24.671 12.2446 24.616 12.1836 24.544 12.1396C24.472 12.0936 24.391 12.0706 24.301 12.0706C24.209 12.0706 24.128 12.0936 24.058 12.1396C23.988 12.1836 23.933 12.2446 23.893 12.3226C23.853 12.4006 23.833 12.4916 23.833 12.5956C23.833 12.6996 23.853 12.7906 23.893 12.8686C23.933 12.9466 23.989 13.0086 24.061 13.0546C24.133 13.0986 24.215 13.1206 24.307 13.1206ZM26.0533 13.3816C25.9033 13.3816 25.7703 13.3486 25.6543 13.2826C25.5383 13.2146 25.4473 13.1216 25.3813 13.0036C25.3173 12.8856 25.2853 12.7496 25.2853 12.5956C25.2853 12.4416 25.3173 12.3056 25.3813 12.1876C25.4473 12.0696 25.5373 11.9776 25.6513 11.9116C25.7673 11.8436 25.8993 11.8096 26.0473 11.8096C26.1933 11.8096 26.3243 11.8436 26.4403 11.9116C26.5583 11.9796 26.6463 12.0766 26.7043 12.2026L26.4463 12.3106C26.4083 12.2366 26.3533 12.1786 26.2813 12.1366C26.2113 12.0946 26.1303 12.0736 26.0383 12.0736C25.9483 12.0736 25.8683 12.0956 25.7983 12.1396C25.7283 12.1836 25.6733 12.2456 25.6333 12.3256C25.5933 12.4036 25.5733 12.4936 25.5733 12.5956C25.5733 12.6976 25.5933 12.7876 25.6333 12.8656C25.6733 12.9436 25.7293 13.0056 25.8013 13.0516C25.8733 13.0956 25.9543 13.1176 26.0443 13.1176C26.1363 13.1176 26.2183 13.0946 26.2903 13.0486C26.3623 13.0006 26.4163 12.9366 26.4523 12.8566L26.7133 12.9616C26.6553 13.0936 26.5673 13.1966 26.4493 13.2706C26.3333 13.3446 26.2013 13.3816 26.0533 13.3816ZM25.8973 11.6416V11.6356L26.2753 11.2456H26.5723L26.2063 11.6416H25.8973ZM25.8763 11.6416L25.5103 11.2456H25.8073L26.1853 11.6356V11.6416H25.8763ZM27.0132 13.3456V11.8456H27.2982V13.3456H27.0132ZM27.1572 11.5276C27.1112 11.5276 27.0712 11.5106 27.0372 11.4766C27.0032 11.4406 26.9862 11.3996 26.9862 11.3536C26.9862 11.3056 27.0032 11.2656 27.0372 11.2336C27.0712 11.1996 27.1112 11.1826 27.1572 11.1826C27.2052 11.1826 27.2452 11.1996 27.2772 11.2336C27.3112 11.2656 27.3282 11.3056 27.3282 11.3536C27.3282 11.3996 27.3112 11.4406 27.2772 11.4766C27.2452 11.5106 27.2052 11.5276 27.1572 11.5276ZM28.9194 13.3456L29.5194 11.8456H29.8164L29.1894 13.3456H28.9194ZM28.9014 13.3456L28.2774 11.8456H28.5684L29.1684 13.3456H28.9014ZM31.8696 13.3456L31.8576 13.0666V11.2456H32.1396V13.3456H31.8696ZM31.3656 13.3816C31.2296 13.3816 31.1106 13.3486 31.0086 13.2826C30.9086 13.2166 30.8296 13.1246 30.7716 13.0066C30.7156 12.8886 30.6876 12.7516 30.6876 12.5956C30.6876 12.4376 30.7156 12.3006 30.7716 12.1846C30.8296 12.0666 30.9086 11.9746 31.0086 11.9086C31.1106 11.8426 31.2296 11.8096 31.3656 11.8096C31.4916 11.8096 31.6006 11.8426 31.6926 11.9086C31.7866 11.9746 31.8586 12.0666 31.9086 12.1846C31.9586 12.3006 31.9836 12.4376 31.9836 12.5956C31.9836 12.7516 31.9586 12.8886 31.9086 13.0066C31.8586 13.1246 31.7866 13.2166 31.6926 13.2826C31.6006 13.3486 31.4916 13.3816 31.3656 13.3816ZM31.4316 13.1236C31.5156 13.1236 31.5896 13.1016 31.6536 13.0576C31.7176 13.0116 31.7676 12.9496 31.8036 12.8716C31.8396 12.7916 31.8576 12.6996 31.8576 12.5956C31.8576 12.4916 31.8396 12.4006 31.8036 12.3226C31.7676 12.2426 31.7176 12.1806 31.6536 12.1366C31.5896 12.0906 31.5146 12.0676 31.4286 12.0676C31.3406 12.0676 31.2626 12.0906 31.1946 12.1366C31.1266 12.1806 31.0736 12.2426 31.0356 12.3226C30.9976 12.4006 30.9786 12.4916 30.9786 12.5956C30.9786 12.6996 30.9976 12.7916 31.0356 12.8716C31.0756 12.9496 31.1296 13.0116 31.1976 13.0576C31.2656 13.1016 31.3436 13.1236 31.4316 13.1236ZM33.2133 13.3816C33.0633 13.3816 32.9313 13.3486 32.8173 13.2826C32.7033 13.2146 32.6133 13.1216 32.5473 13.0036C32.4833 12.8856 32.4513 12.7496 32.4513 12.5956C32.4513 12.4416 32.4833 12.3056 32.5473 12.1876C32.6113 12.0696 32.7003 11.9776 32.8143 11.9116C32.9283 11.8436 33.0593 11.8096 33.2073 11.8096C33.3553 11.8096 33.4863 11.8436 33.6003 11.9116C33.7143 11.9776 33.8033 12.0696 33.8673 12.1876C33.9313 12.3056 33.9633 12.4416 33.9633 12.5956C33.9633 12.7496 33.9313 12.8856 33.8673 13.0036C33.8033 13.1216 33.7143 13.2146 33.6003 13.2826C33.4883 13.3486 33.3593 13.3816 33.2133 13.3816ZM33.2133 13.1206C33.3033 13.1206 33.3833 13.0986 33.4533 13.0546C33.5233 13.0086 33.5773 12.9466 33.6153 12.8686C33.6553 12.7906 33.6753 12.6996 33.6753 12.5956C33.6753 12.4916 33.6553 12.4006 33.6153 12.3226C33.5773 12.2446 33.5223 12.1836 33.4503 12.1396C33.3783 12.0936 33.2973 12.0706 33.2073 12.0706C33.1153 12.0706 33.0343 12.0936 32.9643 12.1396C32.8943 12.1836 32.8393 12.2446 32.7993 12.3226C32.7593 12.4006 32.7393 12.4916 32.7393 12.5956C32.7393 12.6996 32.7593 12.7906 32.7993 12.8686C32.8393 12.9466 32.8953 13.0086 32.9673 13.0546C33.0393 13.0986 33.1213 13.1206 33.2133 13.1206ZM34.2905 13.9456V11.8456H34.5575L34.5755 12.1216V13.9456H34.2905ZM35.0675 13.3816C34.9415 13.3816 34.8315 13.3486 34.7375 13.2826C34.6455 13.2166 34.5745 13.1246 34.5245 13.0066C34.4745 12.8886 34.4495 12.7516 34.4495 12.5956C34.4495 12.4376 34.4745 12.3006 34.5245 12.1846C34.5745 12.0666 34.6455 11.9746 34.7375 11.9086C34.8315 11.8426 34.9415 11.8096 35.0675 11.8096C35.2015 11.8096 35.3195 11.8426 35.4215 11.9086C35.5235 11.9746 35.6025 12.0666 35.6585 12.1846C35.7165 12.3006 35.7455 12.4376 35.7455 12.5956C35.7455 12.7516 35.7165 12.8886 35.6585 13.0066C35.6025 13.1246 35.5235 13.2166 35.4215 13.2826C35.3195 13.3486 35.2015 13.3816 35.0675 13.3816ZM34.9985 13.1236C35.0885 13.1236 35.1675 13.1016 35.2355 13.0576C35.3035 13.0116 35.3565 12.9496 35.3945 12.8716C35.4345 12.7916 35.4545 12.6996 35.4545 12.5956C35.4545 12.4916 35.4355 12.4006 35.3975 12.3226C35.3595 12.2426 35.3065 12.1806 35.2385 12.1366C35.1705 12.0906 35.0915 12.0676 35.0015 12.0676C34.9195 12.0676 34.8455 12.0906 34.7795 12.1366C34.7155 12.1806 34.6655 12.2426 34.6295 12.3226C34.5935 12.4026 34.5755 12.4936 34.5755 12.5956C34.5755 12.6996 34.5935 12.7916 34.6295 12.8716C34.6655 12.9496 34.7155 13.0116 34.7795 13.0576C34.8435 13.1016 34.9165 13.1236 34.9985 13.1236ZM36.2308 12.5386C36.2308 12.3766 36.2618 12.2446 36.3238 12.1426C36.3858 12.0406 36.4658 11.9646 36.5638 11.9146C36.6618 11.8646 36.7648 11.8396 36.8728 11.8396V12.1096C36.7828 12.1096 36.6968 12.1236 36.6148 12.1516C36.5348 12.1776 36.4688 12.2216 36.4168 12.2836C36.3668 12.3436 36.3418 12.4256 36.3418 12.5296L36.2308 12.5386ZM36.0568 13.3456V11.8456H36.3418V13.3456H36.0568ZM38.0237 13.3456L38.0117 13.0846V12.5626C38.0117 12.4526 37.9987 12.3606 37.9727 12.2866C37.9487 12.2126 37.9107 12.1566 37.8587 12.1186C37.8087 12.0806 37.7417 12.0616 37.6577 12.0616C37.5797 12.0616 37.5117 12.0776 37.4537 12.1096C37.3977 12.1416 37.3507 12.1916 37.3127 12.2596L37.0607 12.1636C37.0967 12.0956 37.1417 12.0356 37.1957 11.9836C37.2497 11.9296 37.3147 11.8876 37.3907 11.8576C37.4667 11.8256 37.5557 11.8096 37.6577 11.8096C37.7997 11.8096 37.9177 11.8376 38.0117 11.8936C38.1057 11.9496 38.1757 12.0306 38.2217 12.1366C38.2697 12.2426 38.2927 12.3736 38.2907 12.5296L38.2877 13.3456H38.0237ZM37.5827 13.3816C37.4047 13.3816 37.2657 13.3416 37.1657 13.2616C37.0677 13.1796 37.0187 13.0666 37.0187 12.9226C37.0187 12.7686 37.0697 12.6516 37.1717 12.5716C37.2757 12.4896 37.4197 12.4486 37.6037 12.4486H38.0207V12.6736H37.6817C37.5437 12.6736 37.4467 12.6956 37.3907 12.7396C37.3347 12.7816 37.3067 12.8406 37.3067 12.9166C37.3067 12.9866 37.3327 13.0416 37.3847 13.0816C37.4387 13.1196 37.5127 13.1386 37.6067 13.1386C37.6887 13.1386 37.7597 13.1216 37.8197 13.0876C37.8797 13.0516 37.9267 13.0016 37.9607 12.9376C37.9947 12.8736 38.0117 12.8006 38.0117 12.7186H38.1107C38.1107 12.9226 38.0667 13.0846 37.9787 13.2046C37.8927 13.3226 37.7607 13.3816 37.5827 13.3816ZM39.0942 13.3456L39.6942 11.8456H39.9912L39.3642 13.3456H39.0942ZM39.0762 13.3456L38.4522 11.8456H38.7432L39.3432 13.3456H39.0762ZM40.877 13.3816C40.731 13.3816 40.602 13.3486 40.49 13.2826C40.378 13.2146 40.29 13.1216 40.226 13.0036C40.162 12.8856 40.13 12.7496 40.13 12.5956C40.13 12.4416 40.162 12.3056 40.226 12.1876C40.29 12.0696 40.378 11.9776 40.49 11.9116C40.604 11.8436 40.734 11.8096 40.88 11.8096C41.018 11.8096 41.139 11.8446 41.243 11.9146C41.347 11.9826 41.428 12.0806 41.486 12.2086C41.546 12.3346 41.576 12.4836 41.576 12.6556H40.364L40.418 12.6106C40.418 12.7166 40.439 12.8086 40.481 12.8866C40.523 12.9646 40.58 13.0246 40.652 13.0666C40.724 13.1066 40.806 13.1266 40.898 13.1266C40.998 13.1266 41.081 13.1036 41.147 13.0576C41.215 13.0096 41.268 12.9496 41.306 12.8776L41.552 12.9916C41.512 13.0696 41.46 13.1386 41.396 13.1986C41.332 13.2566 41.256 13.3016 41.168 13.3336C41.082 13.3656 40.985 13.3816 40.877 13.3816ZM40.436 12.4756L40.379 12.4306H41.327L41.273 12.4756C41.273 12.3876 41.255 12.3126 41.219 12.2506C41.183 12.1866 41.135 12.1386 41.075 12.1066C41.015 12.0726 40.948 12.0556 40.874 12.0556C40.802 12.0556 40.732 12.0726 40.664 12.1066C40.598 12.1386 40.543 12.1856 40.499 12.2476C40.457 12.3096 40.436 12.3856 40.436 12.4756ZM40.733 11.6416V11.6356L41.111 11.2456H41.408L41.042 11.6416H40.733ZM40.712 11.6416L40.346 11.2456H40.643L41.021 11.6356V11.6416H40.712ZM42.5208 13.3456V13.1266L43.3668 12.0886H42.5208V11.8456H43.7298V12.0586L42.8808 13.1026H43.7358V13.3456H42.5208ZM44.0607 13.3456V11.2456H44.3457V13.0666L44.3307 13.3456H44.0607ZM44.8377 13.3816C44.7117 13.3816 44.6017 13.3486 44.5077 13.2826C44.4157 13.2166 44.3447 13.1246 44.2947 13.0066C44.2447 12.8886 44.2197 12.7516 44.2197 12.5956C44.2197 12.4376 44.2447 12.3006 44.2947 12.1846C44.3447 12.0666 44.4157 11.9746 44.5077 11.9086C44.6017 11.8426 44.7117 11.8096 44.8377 11.8096C44.9717 11.8096 45.0897 11.8426 45.1917 11.9086C45.2937 11.9746 45.3727 12.0666 45.4287 12.1846C45.4867 12.3006 45.5157 12.4376 45.5157 12.5956C45.5157 12.7516 45.4867 12.8886 45.4287 13.0066C45.3727 13.1246 45.2937 13.2166 45.1917 13.2826C45.0897 13.3486 44.9717 13.3816 44.8377 13.3816ZM44.7687 13.1236C44.8587 13.1236 44.9377 13.1016 45.0057 13.0576C45.0737 13.0116 45.1267 12.9496 45.1647 12.8716C45.2047 12.7916 45.2247 12.6996 45.2247 12.5956C45.2247 12.4916 45.2057 12.4006 45.1677 12.3226C45.1297 12.2426 45.0767 12.1806 45.0087 12.1366C44.9407 12.0906 44.8617 12.0676 44.7717 12.0676C44.6897 12.0676 44.6157 12.0906 44.5497 12.1366C44.4857 12.1806 44.4357 12.2426 44.3997 12.3226C44.3637 12.4026 44.3457 12.4936 44.3457 12.5956C44.3457 12.6996 44.3637 12.7916 44.3997 12.8716C44.4357 12.9496 44.4857 13.0116 44.5497 13.0576C44.6137 13.1016 44.6867 13.1236 44.7687 13.1236ZM46.5053 13.3816C46.3553 13.3816 46.2233 13.3486 46.1093 13.2826C45.9953 13.2146 45.9053 13.1216 45.8393 13.0036C45.7753 12.8856 45.7433 12.7496 45.7433 12.5956C45.7433 12.4416 45.7753 12.3056 45.8393 12.1876C45.9033 12.0696 45.9923 11.9776 46.1063 11.9116C46.2203 11.8436 46.3513 11.8096 46.4993 11.8096C46.6473 11.8096 46.7783 11.8436 46.8923 11.9116C47.0063 11.9776 47.0953 12.0696 47.1593 12.1876C47.2233 12.3056 47.2553 12.4416 47.2553 12.5956C47.2553 12.7496 47.2233 12.8856 47.1593 13.0036C47.0953 13.1216 47.0063 13.2146 46.8923 13.2826C46.7803 13.3486 46.6513 13.3816 46.5053 13.3816ZM46.5053 13.1206C46.5953 13.1206 46.6753 13.0986 46.7453 13.0546C46.8153 13.0086 46.8693 12.9466 46.9073 12.8686C46.9473 12.7906 46.9673 12.6996 46.9673 12.5956C46.9673 12.4916 46.9473 12.4006 46.9073 12.3226C46.8693 12.2446 46.8143 12.1836 46.7423 12.1396C46.6703 12.0936 46.5893 12.0706 46.4993 12.0706C46.4073 12.0706 46.3263 12.0936 46.2563 12.1396C46.1863 12.1836 46.1313 12.2446 46.0913 12.3226C46.0513 12.4006 46.0313 12.4916 46.0313 12.5956C46.0313 12.6996 46.0513 12.7906 46.0913 12.8686C46.1313 12.9466 46.1873 13.0086 46.2593 13.0546C46.3313 13.0986 46.4133 13.1206 46.5053 13.1206ZM47.4925 13.3456V13.1266L48.3385 12.0886H47.4925V11.8456H48.7015V12.0586L47.8525 13.1026H48.7075V13.3456H47.4925ZM47.9485 11.6416V11.6356L48.3265 11.2456H48.6235L48.2575 11.6416H47.9485ZM47.9275 11.6416L47.5615 11.2456H47.8585L48.2365 11.6356V11.6416H47.9275ZM49.0504 13.3456V11.8456H49.3354V13.3456H49.0504ZM48.9754 11.6416L49.3264 11.2456H49.6714L49.2844 11.6416H48.9754Z" fill="#585858"/>
</svg>
