<svg width="18" height="18" viewBox="0 0 18 18" fill="none" xmlns="http://www.w3.org/2000/svg">
<path fill-rule="evenodd" clip-rule="evenodd" d="M4.57053 13.5834C5.73495 15.1477 7.21144 16.1497 9 16.5895C10.7886 16.1497 12.265 15.1477 13.4295 13.5834C14.594 12.0189 15.1763 10.2818 15.1763 8.37191V3.70551L9 1.41052L2.82373 3.70551V8.37191C2.82373 10.2818 3.406 12.0189 4.57053 13.5834ZM8.61399 8.96797V12.9233L5.80664 11.3123C5.62013 11.2029 5.4722 11.055 5.36287 10.8685C5.25353 10.682 5.19887 10.4794 5.19887 10.2607V7.02888L8.61399 8.96797ZM12.1931 11.3123L9.38577 12.9233V8.95833L12.8009 7.00958V10.2607C12.8009 10.4794 12.7462 10.682 12.6369 10.8685C12.5276 11.055 12.3796 11.2029 12.1931 11.3123ZM12.3571 6.37286L11.0644 7.1157L7.70715 5.18625L8.3921 4.79072C8.57862 4.68138 8.78121 4.62671 8.99988 4.62671C9.21855 4.62671 9.42114 4.68138 9.60766 4.79072L12.3571 6.37286ZM10.2733 7.56912L8.99023 8.30231L5.62334 6.38251L6.92572 5.63003L10.2733 7.56912Z" fill="#1D4ED8"/>
</svg>
